<?xml version="1.0" encoding="utf-8" standalone="no"?>
<!DOCTYPE svg PUBLIC "-//W3C//DTD SVG 1.1//EN"
  "http://www.w3.org/Graphics/SVG/1.1/DTD/svg11.dtd">
<svg xmlns:xlink="http://www.w3.org/1999/xlink" width="556.974375pt" height="244.185pt" viewBox="0 0 556.974375 244.185" xmlns="http://www.w3.org/2000/svg" version="1.1">
 <metadata>
  <rdf:RDF xmlns:dc="http://purl.org/dc/elements/1.1/" xmlns:cc="http://creativecommons.org/ns#" xmlns:rdf="http://www.w3.org/1999/02/22-rdf-syntax-ns#">
   <cc:Work>
    <dc:type rdf:resource="http://purl.org/dc/dcmitype/StillImage"/>
    <dc:date>2025-09-10T02:05:22.448097</dc:date>
    <dc:format>image/svg+xml</dc:format>
    <dc:creator>
     <cc:Agent>
      <dc:title>Matplotlib v3.6.3, https://matplotlib.org/</dc:title>
     </cc:Agent>
    </dc:creator>
   </cc:Work>
  </rdf:RDF>
 </metadata>
 <defs>
  <style type="text/css">*{stroke-linejoin: round; stroke-linecap: butt}</style>
 </defs>
 <g id="figure_1">
  <g id="patch_1">
   <path d="M 0 244.185 
L 556.974375 244.185 
L 556.974375 0 
L 0 0 
z
" style="fill: #ffffff"/>
  </g>
  <g id="axes_1">
   <g id="patch_2">
    <path d="M 44.004375 206.2575 
L 549.774375 206.2575 
L 549.774375 25.3575 
L 44.004375 25.3575 
z
" style="fill: #ffffff"/>
   </g>
   <g id="matplotlib.axis_1">
    <g id="xtick_1">
     <g id="line2d_1">
      <path d="M 66.71666 206.2575 
L 66.71666 25.3575 
" clip-path="url(#p2f9807bcfa)" style="fill: none; stroke-dasharray: 1.11,0.48; stroke-dashoffset: 0; stroke: #b0b0b0; stroke-opacity: 0.7; stroke-width: 0.3"/>
     </g>
     <g id="line2d_2">
      <defs>
       <path id="m6f3b281bce" d="M 0 0 
L 0 -3.5 
" style="stroke: #1a1a1a; stroke-width: 0.8"/>
      </defs>
      <g>
       <use xlink:href="#m6f3b281bce" x="66.71666" y="206.2575" style="fill: #1a1a1a; stroke: #1a1a1a; stroke-width: 0.8"/>
      </g>
     </g>
     <g id="text_1">
      <!-- 120 -->
      <g style="fill: #1a1a1a" transform="translate(55.26416 218.875625) scale(0.12 -0.12)">
       <defs>
        <path id="DejaVuSans-31" d="M 794 531 
L 1825 531 
L 1825 4091 
L 703 3866 
L 703 4441 
L 1819 4666 
L 2450 4666 
L 2450 531 
L 3481 531 
L 3481 0 
L 794 0 
L 794 531 
z
" transform="scale(0.015625)"/>
        <path id="DejaVuSans-32" d="M 1228 531 
L 3431 531 
L 3431 0 
L 469 0 
L 469 531 
Q 828 903 1448 1529 
Q 2069 2156 2228 2338 
Q 2531 2678 2651 2914 
Q 2772 3150 2772 3378 
Q 2772 3750 2511 3984 
Q 2250 4219 1831 4219 
Q 1534 4219 1204 4116 
Q 875 4013 500 3803 
L 500 4441 
Q 881 4594 1212 4672 
Q 1544 4750 1819 4750 
Q 2544 4750 2975 4387 
Q 3406 4025 3406 3419 
Q 3406 3131 3298 2873 
Q 3191 2616 2906 2266 
Q 2828 2175 2409 1742 
Q 1991 1309 1228 531 
z
" transform="scale(0.015625)"/>
        <path id="DejaVuSans-30" d="M 2034 4250 
Q 1547 4250 1301 3770 
Q 1056 3291 1056 2328 
Q 1056 1369 1301 889 
Q 1547 409 2034 409 
Q 2525 409 2770 889 
Q 3016 1369 3016 2328 
Q 3016 3291 2770 3770 
Q 2525 4250 2034 4250 
z
M 2034 4750 
Q 2819 4750 3233 4129 
Q 3647 3509 3647 2328 
Q 3647 1150 3233 529 
Q 2819 -91 2034 -91 
Q 1250 -91 836 529 
Q 422 1150 422 2328 
Q 422 3509 836 4129 
Q 1250 4750 2034 4750 
z
" transform="scale(0.015625)"/>
       </defs>
       <use xlink:href="#DejaVuSans-31"/>
       <use xlink:href="#DejaVuSans-32" x="63.623047"/>
       <use xlink:href="#DejaVuSans-30" x="127.246094"/>
      </g>
     </g>
    </g>
    <g id="xtick_2">
     <g id="line2d_3">
      <path d="M 159.090733 206.2575 
L 159.090733 25.3575 
" clip-path="url(#p2f9807bcfa)" style="fill: none; stroke-dasharray: 1.11,0.48; stroke-dashoffset: 0; stroke: #b0b0b0; stroke-opacity: 0.7; stroke-width: 0.3"/>
     </g>
     <g id="line2d_4">
      <g>
       <use xlink:href="#m6f3b281bce" x="159.090733" y="206.2575" style="fill: #1a1a1a; stroke: #1a1a1a; stroke-width: 0.8"/>
      </g>
     </g>
     <g id="text_2">
      <!-- 140 -->
      <g style="fill: #1a1a1a" transform="translate(147.638233 218.875625) scale(0.12 -0.12)">
       <defs>
        <path id="DejaVuSans-34" d="M 2419 4116 
L 825 1625 
L 2419 1625 
L 2419 4116 
z
M 2253 4666 
L 3047 4666 
L 3047 1625 
L 3713 1625 
L 3713 1100 
L 3047 1100 
L 3047 0 
L 2419 0 
L 2419 1100 
L 313 1100 
L 313 1709 
L 2253 4666 
z
" transform="scale(0.015625)"/>
       </defs>
       <use xlink:href="#DejaVuSans-31"/>
       <use xlink:href="#DejaVuSans-34" x="63.623047"/>
       <use xlink:href="#DejaVuSans-30" x="127.246094"/>
      </g>
     </g>
    </g>
    <g id="xtick_3">
     <g id="line2d_5">
      <path d="M 251.464806 206.2575 
L 251.464806 25.3575 
" clip-path="url(#p2f9807bcfa)" style="fill: none; stroke-dasharray: 1.11,0.48; stroke-dashoffset: 0; stroke: #b0b0b0; stroke-opacity: 0.7; stroke-width: 0.3"/>
     </g>
     <g id="line2d_6">
      <g>
       <use xlink:href="#m6f3b281bce" x="251.464806" y="206.2575" style="fill: #1a1a1a; stroke: #1a1a1a; stroke-width: 0.8"/>
      </g>
     </g>
     <g id="text_3">
      <!-- 160 -->
      <g style="fill: #1a1a1a" transform="translate(240.012306 218.875625) scale(0.12 -0.12)">
       <defs>
        <path id="DejaVuSans-36" d="M 2113 2584 
Q 1688 2584 1439 2293 
Q 1191 2003 1191 1497 
Q 1191 994 1439 701 
Q 1688 409 2113 409 
Q 2538 409 2786 701 
Q 3034 994 3034 1497 
Q 3034 2003 2786 2293 
Q 2538 2584 2113 2584 
z
M 3366 4563 
L 3366 3988 
Q 3128 4100 2886 4159 
Q 2644 4219 2406 4219 
Q 1781 4219 1451 3797 
Q 1122 3375 1075 2522 
Q 1259 2794 1537 2939 
Q 1816 3084 2150 3084 
Q 2853 3084 3261 2657 
Q 3669 2231 3669 1497 
Q 3669 778 3244 343 
Q 2819 -91 2113 -91 
Q 1303 -91 875 529 
Q 447 1150 447 2328 
Q 447 3434 972 4092 
Q 1497 4750 2381 4750 
Q 2619 4750 2861 4703 
Q 3103 4656 3366 4563 
z
" transform="scale(0.015625)"/>
       </defs>
       <use xlink:href="#DejaVuSans-31"/>
       <use xlink:href="#DejaVuSans-36" x="63.623047"/>
       <use xlink:href="#DejaVuSans-30" x="127.246094"/>
      </g>
     </g>
    </g>
    <g id="xtick_4">
     <g id="line2d_7">
      <path d="M 343.838879 206.2575 
L 343.838879 25.3575 
" clip-path="url(#p2f9807bcfa)" style="fill: none; stroke-dasharray: 1.11,0.48; stroke-dashoffset: 0; stroke: #b0b0b0; stroke-opacity: 0.7; stroke-width: 0.3"/>
     </g>
     <g id="line2d_8">
      <g>
       <use xlink:href="#m6f3b281bce" x="343.838879" y="206.2575" style="fill: #1a1a1a; stroke: #1a1a1a; stroke-width: 0.8"/>
      </g>
     </g>
     <g id="text_4">
      <!-- 180 -->
      <g style="fill: #1a1a1a" transform="translate(332.386379 218.875625) scale(0.12 -0.12)">
       <defs>
        <path id="DejaVuSans-38" d="M 2034 2216 
Q 1584 2216 1326 1975 
Q 1069 1734 1069 1313 
Q 1069 891 1326 650 
Q 1584 409 2034 409 
Q 2484 409 2743 651 
Q 3003 894 3003 1313 
Q 3003 1734 2745 1975 
Q 2488 2216 2034 2216 
z
M 1403 2484 
Q 997 2584 770 2862 
Q 544 3141 544 3541 
Q 544 4100 942 4425 
Q 1341 4750 2034 4750 
Q 2731 4750 3128 4425 
Q 3525 4100 3525 3541 
Q 3525 3141 3298 2862 
Q 3072 2584 2669 2484 
Q 3125 2378 3379 2068 
Q 3634 1759 3634 1313 
Q 3634 634 3220 271 
Q 2806 -91 2034 -91 
Q 1263 -91 848 271 
Q 434 634 434 1313 
Q 434 1759 690 2068 
Q 947 2378 1403 2484 
z
M 1172 3481 
Q 1172 3119 1398 2916 
Q 1625 2713 2034 2713 
Q 2441 2713 2670 2916 
Q 2900 3119 2900 3481 
Q 2900 3844 2670 4047 
Q 2441 4250 2034 4250 
Q 1625 4250 1398 4047 
Q 1172 3844 1172 3481 
z
" transform="scale(0.015625)"/>
       </defs>
       <use xlink:href="#DejaVuSans-31"/>
       <use xlink:href="#DejaVuSans-38" x="63.623047"/>
       <use xlink:href="#DejaVuSans-30" x="127.246094"/>
      </g>
     </g>
    </g>
    <g id="xtick_5">
     <g id="line2d_9">
      <path d="M 436.212952 206.2575 
L 436.212952 25.3575 
" clip-path="url(#p2f9807bcfa)" style="fill: none; stroke-dasharray: 1.11,0.48; stroke-dashoffset: 0; stroke: #b0b0b0; stroke-opacity: 0.7; stroke-width: 0.3"/>
     </g>
     <g id="line2d_10">
      <g>
       <use xlink:href="#m6f3b281bce" x="436.212952" y="206.2575" style="fill: #1a1a1a; stroke: #1a1a1a; stroke-width: 0.8"/>
      </g>
     </g>
     <g id="text_5">
      <!-- 200 -->
      <g style="fill: #1a1a1a" transform="translate(424.760452 218.875625) scale(0.12 -0.12)">
       <use xlink:href="#DejaVuSans-32"/>
       <use xlink:href="#DejaVuSans-30" x="63.623047"/>
       <use xlink:href="#DejaVuSans-30" x="127.246094"/>
      </g>
     </g>
    </g>
    <g id="xtick_6">
     <g id="line2d_11">
      <path d="M 528.587025 206.2575 
L 528.587025 25.3575 
" clip-path="url(#p2f9807bcfa)" style="fill: none; stroke-dasharray: 1.11,0.48; stroke-dashoffset: 0; stroke: #b0b0b0; stroke-opacity: 0.7; stroke-width: 0.3"/>
     </g>
     <g id="line2d_12">
      <g>
       <use xlink:href="#m6f3b281bce" x="528.587025" y="206.2575" style="fill: #1a1a1a; stroke: #1a1a1a; stroke-width: 0.8"/>
      </g>
     </g>
     <g id="text_6">
      <!-- 220 -->
      <g style="fill: #1a1a1a" transform="translate(517.134525 218.875625) scale(0.12 -0.12)">
       <use xlink:href="#DejaVuSans-32"/>
       <use xlink:href="#DejaVuSans-32" x="63.623047"/>
       <use xlink:href="#DejaVuSans-30" x="127.246094"/>
      </g>
     </g>
    </g>
    <g id="text_7">
     <!-- Time (ms) -->
     <g style="fill: #1a1a1a" transform="translate(266.650312 234.489375) scale(0.12 -0.12)">
      <defs>
       <path id="DejaVuSans-54" d="M -19 4666 
L 3928 4666 
L 3928 4134 
L 2272 4134 
L 2272 0 
L 1638 0 
L 1638 4134 
L -19 4134 
L -19 4666 
z
" transform="scale(0.015625)"/>
       <path id="DejaVuSans-69" d="M 603 3500 
L 1178 3500 
L 1178 0 
L 603 0 
L 603 3500 
z
M 603 4863 
L 1178 4863 
L 1178 4134 
L 603 4134 
L 603 4863 
z
" transform="scale(0.015625)"/>
       <path id="DejaVuSans-6d" d="M 3328 2828 
Q 3544 3216 3844 3400 
Q 4144 3584 4550 3584 
Q 5097 3584 5394 3201 
Q 5691 2819 5691 2113 
L 5691 0 
L 5113 0 
L 5113 2094 
Q 5113 2597 4934 2840 
Q 4756 3084 4391 3084 
Q 3944 3084 3684 2787 
Q 3425 2491 3425 1978 
L 3425 0 
L 2847 0 
L 2847 2094 
Q 2847 2600 2669 2842 
Q 2491 3084 2119 3084 
Q 1678 3084 1418 2786 
Q 1159 2488 1159 1978 
L 1159 0 
L 581 0 
L 581 3500 
L 1159 3500 
L 1159 2956 
Q 1356 3278 1631 3431 
Q 1906 3584 2284 3584 
Q 2666 3584 2933 3390 
Q 3200 3197 3328 2828 
z
" transform="scale(0.015625)"/>
       <path id="DejaVuSans-65" d="M 3597 1894 
L 3597 1613 
L 953 1613 
Q 991 1019 1311 708 
Q 1631 397 2203 397 
Q 2534 397 2845 478 
Q 3156 559 3463 722 
L 3463 178 
Q 3153 47 2828 -22 
Q 2503 -91 2169 -91 
Q 1331 -91 842 396 
Q 353 884 353 1716 
Q 353 2575 817 3079 
Q 1281 3584 2069 3584 
Q 2775 3584 3186 3129 
Q 3597 2675 3597 1894 
z
M 3022 2063 
Q 3016 2534 2758 2815 
Q 2500 3097 2075 3097 
Q 1594 3097 1305 2825 
Q 1016 2553 972 2059 
L 3022 2063 
z
" transform="scale(0.015625)"/>
       <path id="DejaVuSans-20" transform="scale(0.015625)"/>
       <path id="DejaVuSans-28" d="M 1984 4856 
Q 1566 4138 1362 3434 
Q 1159 2731 1159 2009 
Q 1159 1288 1364 580 
Q 1569 -128 1984 -844 
L 1484 -844 
Q 1016 -109 783 600 
Q 550 1309 550 2009 
Q 550 2706 781 3412 
Q 1013 4119 1484 4856 
L 1984 4856 
z
" transform="scale(0.015625)"/>
       <path id="DejaVuSans-73" d="M 2834 3397 
L 2834 2853 
Q 2591 2978 2328 3040 
Q 2066 3103 1784 3103 
Q 1356 3103 1142 2972 
Q 928 2841 928 2578 
Q 928 2378 1081 2264 
Q 1234 2150 1697 2047 
L 1894 2003 
Q 2506 1872 2764 1633 
Q 3022 1394 3022 966 
Q 3022 478 2636 193 
Q 2250 -91 1575 -91 
Q 1294 -91 989 -36 
Q 684 19 347 128 
L 347 722 
Q 666 556 975 473 
Q 1284 391 1588 391 
Q 1994 391 2212 530 
Q 2431 669 2431 922 
Q 2431 1156 2273 1281 
Q 2116 1406 1581 1522 
L 1381 1569 
Q 847 1681 609 1914 
Q 372 2147 372 2553 
Q 372 3047 722 3315 
Q 1072 3584 1716 3584 
Q 2034 3584 2315 3537 
Q 2597 3491 2834 3397 
z
" transform="scale(0.015625)"/>
       <path id="DejaVuSans-29" d="M 513 4856 
L 1013 4856 
Q 1481 4119 1714 3412 
Q 1947 2706 1947 2009 
Q 1947 1309 1714 600 
Q 1481 -109 1013 -844 
L 513 -844 
Q 928 -128 1133 580 
Q 1338 1288 1338 2009 
Q 1338 2731 1133 3434 
Q 928 4138 513 4856 
z
" transform="scale(0.015625)"/>
      </defs>
      <use xlink:href="#DejaVuSans-54"/>
      <use xlink:href="#DejaVuSans-69" x="57.958984"/>
      <use xlink:href="#DejaVuSans-6d" x="85.742188"/>
      <use xlink:href="#DejaVuSans-65" x="183.154297"/>
      <use xlink:href="#DejaVuSans-20" x="244.677734"/>
      <use xlink:href="#DejaVuSans-28" x="276.464844"/>
      <use xlink:href="#DejaVuSans-6d" x="315.478516"/>
      <use xlink:href="#DejaVuSans-73" x="412.890625"/>
      <use xlink:href="#DejaVuSans-29" x="464.990234"/>
     </g>
    </g>
   </g>
   <g id="matplotlib.axis_2">
    <g id="ytick_1">
     <g id="line2d_13">
      <path d="M 44.004375 168.646458 
L 549.774375 168.646458 
" clip-path="url(#p2f9807bcfa)" style="fill: none; stroke-dasharray: 1.11,0.48; stroke-dashoffset: 0; stroke: #b0b0b0; stroke-opacity: 0.7; stroke-width: 0.3"/>
     </g>
     <g id="line2d_14">
      <defs>
       <path id="mf78f8c9020" d="M 0 0 
L 3.5 0 
" style="stroke: #1a1a1a; stroke-width: 0.8"/>
      </defs>
      <g>
       <use xlink:href="#mf78f8c9020" x="44.004375" y="168.646458" style="fill: #1a1a1a; stroke: #1a1a1a; stroke-width: 0.8"/>
      </g>
     </g>
     <g id="text_8">
      <!-- −1 -->
      <g style="fill: #1a1a1a" transform="translate(22.81375 173.205521) scale(0.12 -0.12)">
       <defs>
        <path id="DejaVuSans-2212" d="M 678 2272 
L 4684 2272 
L 4684 1741 
L 678 1741 
L 678 2272 
z
" transform="scale(0.015625)"/>
       </defs>
       <use xlink:href="#DejaVuSans-2212"/>
       <use xlink:href="#DejaVuSans-31" x="83.789062"/>
      </g>
     </g>
    </g>
    <g id="ytick_2">
     <g id="line2d_15">
      <path d="M 44.004375 118.817938 
L 549.774375 118.817938 
" clip-path="url(#p2f9807bcfa)" style="fill: none; stroke-dasharray: 1.11,0.48; stroke-dashoffset: 0; stroke: #b0b0b0; stroke-opacity: 0.7; stroke-width: 0.3"/>
     </g>
     <g id="line2d_16">
      <g>
       <use xlink:href="#mf78f8c9020" x="44.004375" y="118.817938" style="fill: #1a1a1a; stroke: #1a1a1a; stroke-width: 0.8"/>
      </g>
     </g>
     <g id="text_9">
      <!-- 0 -->
      <g style="fill: #1a1a1a" transform="translate(32.869375 123.377) scale(0.12 -0.12)">
       <use xlink:href="#DejaVuSans-30"/>
      </g>
     </g>
    </g>
    <g id="ytick_3">
     <g id="line2d_17">
      <path d="M 44.004375 68.989418 
L 549.774375 68.989418 
" clip-path="url(#p2f9807bcfa)" style="fill: none; stroke-dasharray: 1.11,0.48; stroke-dashoffset: 0; stroke: #b0b0b0; stroke-opacity: 0.7; stroke-width: 0.3"/>
     </g>
     <g id="line2d_18">
      <g>
       <use xlink:href="#mf78f8c9020" x="44.004375" y="68.989418" style="fill: #1a1a1a; stroke: #1a1a1a; stroke-width: 0.8"/>
      </g>
     </g>
     <g id="text_10">
      <!-- 1 -->
      <g style="fill: #1a1a1a" transform="translate(32.869375 73.54848) scale(0.12 -0.12)">
       <use xlink:href="#DejaVuSans-31"/>
      </g>
     </g>
    </g>
    <g id="text_11">
     <!-- Signal (arb. units) -->
     <g style="fill: #1a1a1a" transform="translate(16.318125 169.343437) rotate(-90) scale(0.12 -0.12)">
      <defs>
       <path id="DejaVuSans-53" d="M 3425 4513 
L 3425 3897 
Q 3066 4069 2747 4153 
Q 2428 4238 2131 4238 
Q 1616 4238 1336 4038 
Q 1056 3838 1056 3469 
Q 1056 3159 1242 3001 
Q 1428 2844 1947 2747 
L 2328 2669 
Q 3034 2534 3370 2195 
Q 3706 1856 3706 1288 
Q 3706 609 3251 259 
Q 2797 -91 1919 -91 
Q 1588 -91 1214 -16 
Q 841 59 441 206 
L 441 856 
Q 825 641 1194 531 
Q 1563 422 1919 422 
Q 2459 422 2753 634 
Q 3047 847 3047 1241 
Q 3047 1584 2836 1778 
Q 2625 1972 2144 2069 
L 1759 2144 
Q 1053 2284 737 2584 
Q 422 2884 422 3419 
Q 422 4038 858 4394 
Q 1294 4750 2059 4750 
Q 2388 4750 2728 4690 
Q 3069 4631 3425 4513 
z
" transform="scale(0.015625)"/>
       <path id="DejaVuSans-67" d="M 2906 1791 
Q 2906 2416 2648 2759 
Q 2391 3103 1925 3103 
Q 1463 3103 1205 2759 
Q 947 2416 947 1791 
Q 947 1169 1205 825 
Q 1463 481 1925 481 
Q 2391 481 2648 825 
Q 2906 1169 2906 1791 
z
M 3481 434 
Q 3481 -459 3084 -895 
Q 2688 -1331 1869 -1331 
Q 1566 -1331 1297 -1286 
Q 1028 -1241 775 -1147 
L 775 -588 
Q 1028 -725 1275 -790 
Q 1522 -856 1778 -856 
Q 2344 -856 2625 -561 
Q 2906 -266 2906 331 
L 2906 616 
Q 2728 306 2450 153 
Q 2172 0 1784 0 
Q 1141 0 747 490 
Q 353 981 353 1791 
Q 353 2603 747 3093 
Q 1141 3584 1784 3584 
Q 2172 3584 2450 3431 
Q 2728 3278 2906 2969 
L 2906 3500 
L 3481 3500 
L 3481 434 
z
" transform="scale(0.015625)"/>
       <path id="DejaVuSans-6e" d="M 3513 2113 
L 3513 0 
L 2938 0 
L 2938 2094 
Q 2938 2591 2744 2837 
Q 2550 3084 2163 3084 
Q 1697 3084 1428 2787 
Q 1159 2491 1159 1978 
L 1159 0 
L 581 0 
L 581 3500 
L 1159 3500 
L 1159 2956 
Q 1366 3272 1645 3428 
Q 1925 3584 2291 3584 
Q 2894 3584 3203 3211 
Q 3513 2838 3513 2113 
z
" transform="scale(0.015625)"/>
       <path id="DejaVuSans-61" d="M 2194 1759 
Q 1497 1759 1228 1600 
Q 959 1441 959 1056 
Q 959 750 1161 570 
Q 1363 391 1709 391 
Q 2188 391 2477 730 
Q 2766 1069 2766 1631 
L 2766 1759 
L 2194 1759 
z
M 3341 1997 
L 3341 0 
L 2766 0 
L 2766 531 
Q 2569 213 2275 61 
Q 1981 -91 1556 -91 
Q 1019 -91 701 211 
Q 384 513 384 1019 
Q 384 1609 779 1909 
Q 1175 2209 1959 2209 
L 2766 2209 
L 2766 2266 
Q 2766 2663 2505 2880 
Q 2244 3097 1772 3097 
Q 1472 3097 1187 3025 
Q 903 2953 641 2809 
L 641 3341 
Q 956 3463 1253 3523 
Q 1550 3584 1831 3584 
Q 2591 3584 2966 3190 
Q 3341 2797 3341 1997 
z
" transform="scale(0.015625)"/>
       <path id="DejaVuSans-6c" d="M 603 4863 
L 1178 4863 
L 1178 0 
L 603 0 
L 603 4863 
z
" transform="scale(0.015625)"/>
       <path id="DejaVuSans-72" d="M 2631 2963 
Q 2534 3019 2420 3045 
Q 2306 3072 2169 3072 
Q 1681 3072 1420 2755 
Q 1159 2438 1159 1844 
L 1159 0 
L 581 0 
L 581 3500 
L 1159 3500 
L 1159 2956 
Q 1341 3275 1631 3429 
Q 1922 3584 2338 3584 
Q 2397 3584 2469 3576 
Q 2541 3569 2628 3553 
L 2631 2963 
z
" transform="scale(0.015625)"/>
       <path id="DejaVuSans-62" d="M 3116 1747 
Q 3116 2381 2855 2742 
Q 2594 3103 2138 3103 
Q 1681 3103 1420 2742 
Q 1159 2381 1159 1747 
Q 1159 1113 1420 752 
Q 1681 391 2138 391 
Q 2594 391 2855 752 
Q 3116 1113 3116 1747 
z
M 1159 2969 
Q 1341 3281 1617 3432 
Q 1894 3584 2278 3584 
Q 2916 3584 3314 3078 
Q 3713 2572 3713 1747 
Q 3713 922 3314 415 
Q 2916 -91 2278 -91 
Q 1894 -91 1617 61 
Q 1341 213 1159 525 
L 1159 0 
L 581 0 
L 581 4863 
L 1159 4863 
L 1159 2969 
z
" transform="scale(0.015625)"/>
       <path id="DejaVuSans-2e" d="M 684 794 
L 1344 794 
L 1344 0 
L 684 0 
L 684 794 
z
" transform="scale(0.015625)"/>
       <path id="DejaVuSans-75" d="M 544 1381 
L 544 3500 
L 1119 3500 
L 1119 1403 
Q 1119 906 1312 657 
Q 1506 409 1894 409 
Q 2359 409 2629 706 
Q 2900 1003 2900 1516 
L 2900 3500 
L 3475 3500 
L 3475 0 
L 2900 0 
L 2900 538 
Q 2691 219 2414 64 
Q 2138 -91 1772 -91 
Q 1169 -91 856 284 
Q 544 659 544 1381 
z
M 1991 3584 
L 1991 3584 
z
" transform="scale(0.015625)"/>
       <path id="DejaVuSans-74" d="M 1172 4494 
L 1172 3500 
L 2356 3500 
L 2356 3053 
L 1172 3053 
L 1172 1153 
Q 1172 725 1289 603 
Q 1406 481 1766 481 
L 2356 481 
L 2356 0 
L 1766 0 
Q 1100 0 847 248 
Q 594 497 594 1153 
L 594 3053 
L 172 3053 
L 172 3500 
L 594 3500 
L 594 4494 
L 1172 4494 
z
" transform="scale(0.015625)"/>
      </defs>
      <use xlink:href="#DejaVuSans-53"/>
      <use xlink:href="#DejaVuSans-69" x="63.476562"/>
      <use xlink:href="#DejaVuSans-67" x="91.259766"/>
      <use xlink:href="#DejaVuSans-6e" x="154.736328"/>
      <use xlink:href="#DejaVuSans-61" x="218.115234"/>
      <use xlink:href="#DejaVuSans-6c" x="279.394531"/>
      <use xlink:href="#DejaVuSans-20" x="307.177734"/>
      <use xlink:href="#DejaVuSans-28" x="338.964844"/>
      <use xlink:href="#DejaVuSans-61" x="377.978516"/>
      <use xlink:href="#DejaVuSans-72" x="439.257812"/>
      <use xlink:href="#DejaVuSans-62" x="480.371094"/>
      <use xlink:href="#DejaVuSans-2e" x="543.847656"/>
      <use xlink:href="#DejaVuSans-20" x="575.634766"/>
      <use xlink:href="#DejaVuSans-75" x="607.421875"/>
      <use xlink:href="#DejaVuSans-6e" x="670.800781"/>
      <use xlink:href="#DejaVuSans-69" x="734.179688"/>
      <use xlink:href="#DejaVuSans-74" x="761.962891"/>
      <use xlink:href="#DejaVuSans-73" x="801.171875"/>
      <use xlink:href="#DejaVuSans-29" x="853.271484"/>
     </g>
    </g>
   </g>
   <g id="line2d_19">
    <path d="M 66.99392 154.274396 
L 69.304428 172.285421 
L 71.614935 175.494659 
L 73.925442 170.323886 
L 76.235949 162.587122 
L 78.546456 180.577047 
L 80.856963 180.842039 
L 83.16747 160.923184 
L 85.477977 176.18719 
L 87.788484 157.974524 
L 90.098991 191.540343 
L 92.409498 162.0132 
L 94.720005 180.541458 
L 97.030513 150.16965 
L 99.34102 169.910622 
L 101.651527 148.677303 
L 103.962034 160.848296 
L 106.272541 166.079055 
L 108.583048 147.998208 
L 110.893555 195.006762 
L 113.204062 161.29961 
L 115.514569 180.454214 
L 117.825076 160.25683 
L 120.135583 181.334837 
L 124.756597 151.238357 
L 127.067105 170.570156 
L 129.377612 153.28489 
L 131.688119 150.244934 
L 133.998626 179.836514 
L 136.309133 186.491668 
L 138.61964 183.643428 
L 140.930147 183.497811 
L 143.240654 166.893162 
L 145.551161 149.144772 
L 147.861668 167.761304 
L 150.172175 147.006462 
L 152.482682 187.74384 
L 154.79319 140.363272 
L 157.103697 151.416071 
L 159.414204 183.702116 
L 161.724711 168.574804 
L 164.035218 161.968916 
L 166.345725 169.703681 
L 168.656232 167.306188 
L 170.966739 168.760912 
L 173.277246 163.84049 
L 175.587753 154.369016 
L 177.89826 142.822626 
L 180.208767 132.312487 
L 182.519274 148.56104 
L 184.829782 159.183599 
L 187.140289 146.898363 
L 189.450796 152.918658 
L 191.761303 158.386332 
L 194.07181 134.816336 
L 196.382317 129.729586 
L 198.692824 129.371848 
L 201.003331 124.947493 
L 203.313838 132.72127 
L 205.624345 108.734863 
L 207.934852 127.311292 
L 210.245359 140.725895 
L 212.555867 145.994932 
L 214.866374 139.030662 
L 217.176881 155.687116 
L 219.487388 130.169372 
L 221.797895 145.181522 
L 224.108402 139.212037 
L 226.418909 139.974039 
L 228.729416 177.56438 
L 231.039923 147.766245 
L 233.35043 161.216091 
L 235.660937 164.339291 
L 237.971444 170.831307 
L 240.281952 173.071855 
L 242.592459 170.432455 
L 244.902966 184.875069 
L 247.213473 186.348793 
L 249.52398 181.667707 
L 251.834487 170.790012 
L 254.144994 164.597646 
L 256.455501 192.384945 
L 258.766008 154.715319 
L 261.076515 143.25045 
L 263.387022 158.770399 
L 265.697529 168.274841 
L 268.008036 153.162607 
L 270.318544 181.04436 
L 272.629051 175.362108 
L 274.939558 180.984433 
L 277.250065 165.061532 
L 279.560572 174.008953 
L 281.871079 162.048914 
L 284.181586 146.773396 
L 286.492093 169.798389 
L 288.8026 174.450891 
L 291.113107 151.853027 
L 293.423614 174.798084 
L 295.734121 168.65358 
L 298.044629 184.282509 
L 300.355136 178.875486 
L 302.665643 188.004348 
L 304.97615 179.334353 
L 307.286657 144.651262 
L 309.597164 180.960934 
L 311.907671 167.062643 
L 314.218178 159.320184 
L 316.528685 164.959963 
L 318.839192 173.411373 
L 321.149699 174.664699 
L 323.460206 151.317703 
L 325.770714 198.034773 
L 328.081221 153.233721 
L 330.391728 159.683582 
L 332.702235 178.046834 
L 335.012742 159.024846 
L 337.323249 152.653499 
L 339.633756 191.499995 
L 341.944263 197.451726 
L 344.25477 181.746582 
L 346.565277 179.916999 
L 348.875784 161.354069 
L 351.186291 171.604088 
L 353.496798 178.041419 
L 355.807306 183.365882 
L 358.117813 171.293261 
L 360.42832 167.109363 
L 362.738827 156.132895 
L 365.049334 153.74305 
L 367.359841 155.090203 
L 369.670348 181.132904 
L 371.980855 182.424719 
L 374.291362 167.977615 
L 376.601869 168.967634 
L 378.912376 156.390977 
L 381.222883 154.268449 
L 383.533391 196.383622 
L 385.843898 176.619359 
L 388.154405 182.588663 
L 390.464912 163.153293 
L 392.775419 148.265465 
L 395.085926 159.015452 
L 397.396433 159.003898 
L 399.70694 176.096807 
L 402.017447 163.336749 
L 404.327954 172.207956 
L 406.638461 141.656544 
L 408.948968 181.845378 
L 411.259476 162.872616 
L 413.569983 167.806288 
L 415.88049 183.377011 
L 418.190997 174.151326 
L 420.501504 170.251038 
L 422.812011 182.097249 
L 425.122518 185.346084 
L 427.433025 145.25118 
L 429.743532 169.389087 
L 432.054039 168.113102 
L 434.364546 160.044031 
L 436.675053 82.049908 
L 438.98556 65.599489 
L 441.296068 88.89755 
L 443.606575 63.100588 
L 445.917082 75.062296 
L 448.227589 89.7415 
L 450.538096 54.258058 
L 452.848603 49.686775 
L 455.15911 72.637956 
L 457.469617 88.787524 
L 459.780124 66.359384 
L 462.090631 59.230341 
L 464.401138 65.97311 
L 466.711645 56.879334 
L 469.022153 92.853905 
L 471.33266 76.90153 
L 473.643167 69.272915 
L 475.953674 62.862419 
L 478.264181 59.938174 
L 480.574688 72.11403 
L 482.885195 64.502033 
L 485.195702 53.219035 
L 487.506209 70.409436 
L 489.816716 33.580227 
L 492.127223 65.410197 
L 494.43773 76.695495 
L 496.748237 70.192677 
L 499.058745 69.299505 
L 501.369252 76.980762 
L 503.679759 64.116143 
L 505.990266 77.074607 
L 508.300773 58.97125 
L 510.61128 49.791782 
L 512.921787 45.211836 
L 515.232294 71.979489 
L 517.542801 84.838158 
L 519.853308 63.017342 
L 522.163815 50.429221 
L 524.474322 55.553245 
L 526.78483 50.294786 
L 526.78483 50.294786 
" clip-path="url(#p2f9807bcfa)" style="fill: none; stroke: #e69f00; stroke-width: 1.5; stroke-linecap: square"/>
   </g>
   <g id="line2d_20">
    <path d="M 66.99392 167.397455 
L 69.304428 171.952137 
L 71.614935 164.967427 
L 73.925442 168.489753 
L 76.235949 168.610972 
L 78.546456 162.98481 
L 80.856963 175.983786 
L 83.16747 170.580355 
L 85.477977 167.989891 
L 87.788484 166.892152 
L 90.098991 171.953059 
L 92.409498 173.950964 
L 94.720005 169.276435 
L 97.030513 169.70153 
L 99.34102 164.316824 
L 101.651527 174.174198 
L 103.962034 166.586118 
L 106.272541 172.454093 
L 108.583048 164.054217 
L 110.893555 161.151846 
L 113.204062 166.281161 
L 115.514569 171.717377 
L 117.825076 165.797417 
L 120.135583 171.169559 
L 122.44609 170.996181 
L 124.756597 163.727976 
L 127.067105 159.354423 
L 129.377612 167.866086 
L 131.688119 165.337861 
L 133.998626 171.208978 
L 136.309133 171.919716 
L 138.61964 170.157181 
L 140.930147 167.949547 
L 143.240654 170.546409 
L 145.551161 165.925644 
L 147.861668 170.439108 
L 150.172175 170.190882 
L 152.482682 167.477527 
L 154.79319 166.616735 
L 157.103697 168.290641 
L 159.414204 167.990527 
L 161.724711 167.955356 
L 164.035218 164.670297 
L 166.345725 171.840789 
L 168.656232 163.84083 
L 170.966739 169.537361 
L 173.277246 165.998549 
L 175.587753 169.404241 
L 177.89826 171.461685 
L 180.208767 162.493174 
L 182.519274 162.050834 
L 184.829782 163.266724 
L 187.140289 168.111851 
L 189.450796 160.842396 
L 191.761303 165.841087 
L 194.07181 166.315042 
L 196.382317 155.803786 
L 198.692824 164.233275 
L 201.003331 159.219437 
L 203.313838 156.397076 
L 205.624345 160.802108 
L 207.934852 159.563971 
L 210.245359 156.05793 
L 212.555867 156.281206 
L 214.866374 164.745076 
L 217.176881 164.839187 
L 219.487388 165.236326 
L 221.797895 160.886348 
L 224.108402 163.275883 
L 226.418909 164.089204 
L 228.729416 170.9229 
L 231.039923 164.486722 
L 233.35043 168.651331 
L 235.660937 174.230026 
L 237.971444 178.344734 
L 240.281952 162.537447 
L 242.592459 171.707537 
L 244.902966 170.327399 
L 247.213473 167.722134 
L 249.52398 169.738836 
L 251.834487 169.660636 
L 254.144994 169.757327 
L 256.455501 171.610253 
L 258.766008 172.297635 
L 261.076515 166.655492 
L 263.387022 173.861967 
L 265.697529 159.938269 
L 268.008036 167.998754 
L 270.318544 164.81185 
L 272.629051 167.112196 
L 274.939558 168.387255 
L 277.250065 170.717861 
L 279.560572 163.534406 
L 281.871079 170.661878 
L 284.181586 166.471859 
L 286.492093 174.064065 
L 288.8026 172.22125 
L 291.113107 171.750748 
L 295.734121 169.384712 
L 298.044629 166.565852 
L 300.355136 167.30206 
L 302.665643 165.142128 
L 304.97615 168.102728 
L 307.286657 171.694984 
L 309.597164 161.70578 
L 311.907671 172.716437 
L 314.218178 167.792733 
L 316.528685 170.508203 
L 318.839192 170.924063 
L 321.149699 175.57945 
L 323.460206 169.149238 
L 325.770714 168.472034 
L 328.081221 172.410948 
L 330.391728 170.983762 
L 332.702235 167.500687 
L 337.323249 168.319906 
L 339.633756 171.576175 
L 341.944263 168.93823 
L 344.25477 171.593018 
L 346.565277 170.463098 
L 348.875784 173.987438 
L 351.186291 168.630787 
L 353.496798 171.147687 
L 355.807306 169.292998 
L 358.117813 172.521633 
L 360.42832 167.629536 
L 362.738827 172.179865 
L 365.049334 172.837741 
L 367.359841 168.819844 
L 369.670348 172.61992 
L 371.980855 172.548246 
L 374.291362 171.770452 
L 376.601869 165.90576 
L 378.912376 173.110975 
L 381.222883 170.292032 
L 383.533391 163.338705 
L 385.843898 164.07446 
L 388.154405 172.237628 
L 390.464912 166.152616 
L 392.775419 170.200383 
L 395.085926 169.454244 
L 397.396433 169.017497 
L 399.70694 176.148719 
L 402.017447 169.758419 
L 404.327954 175.959626 
L 406.638461 169.843658 
L 408.948968 165.519002 
L 411.259476 167.742321 
L 413.569983 164.547594 
L 415.88049 171.309775 
L 418.190997 171.359092 
L 420.501504 163.677125 
L 422.812011 170.592581 
L 425.122518 167.585854 
L 427.433025 171.499371 
L 429.743532 171.276334 
L 432.054039 173.490814 
L 434.364546 166.603521 
L 436.675053 72.928701 
L 438.98556 72.734925 
L 441.296068 69.718688 
L 443.606575 64.00035 
L 445.917082 78.325114 
L 448.227589 69.728846 
L 450.538096 73.51978 
L 452.848603 69.48442 
L 455.15911 72.213772 
L 457.469617 71.334385 
L 459.780124 67.561737 
L 462.090631 66.126842 
L 464.401138 69.793371 
L 466.711645 73.225365 
L 469.022153 70.612551 
L 471.33266 62.489643 
L 473.643167 73.413698 
L 475.953674 70.915037 
L 478.264181 76.032017 
L 480.574688 69.350574 
L 482.885195 75.629005 
L 485.195702 68.782565 
L 487.506209 71.438713 
L 489.816716 75.77581 
L 492.127223 64.643396 
L 494.43773 67.582308 
L 496.748237 72.714752 
L 499.058745 73.766141 
L 501.369252 71.881323 
L 503.679759 71.777833 
L 505.990266 67.005416 
L 508.300773 66.857411 
L 510.61128 63.376337 
L 512.921787 78.087568 
L 515.232294 66.049382 
L 517.542801 64.237151 
L 519.853308 64.828382 
L 522.163815 66.628606 
L 524.474322 69.584292 
L 526.78483 62.87584 
L 526.78483 62.87584 
" clip-path="url(#p2f9807bcfa)" style="fill: none; stroke: #56b4e9; stroke-width: 1.5; stroke-linecap: square"/>
   </g>
   <g id="patch_3">
    <path d="M 44.004375 206.2575 
L 44.004375 25.3575 
" style="fill: none; stroke: #1a1a1a; stroke-linejoin: miter; stroke-linecap: square"/>
   </g>
   <g id="patch_4">
    <path d="M 44.004375 206.2575 
L 549.774375 206.2575 
" style="fill: none; stroke: #1a1a1a; stroke-linejoin: miter; stroke-linecap: square"/>
   </g>
   <g id="text_12">
    <!-- Fig.4: EMI-induced jitter suppression -->
    <g style="fill: #333333" transform="translate(151.689375 19.3575) scale(0.16 -0.16)">
     <defs>
      <path id="DejaVuSans-46" d="M 628 4666 
L 3309 4666 
L 3309 4134 
L 1259 4134 
L 1259 2759 
L 3109 2759 
L 3109 2228 
L 1259 2228 
L 1259 0 
L 628 0 
L 628 4666 
z
" transform="scale(0.015625)"/>
      <path id="DejaVuSans-3a" d="M 750 794 
L 1409 794 
L 1409 0 
L 750 0 
L 750 794 
z
M 750 3309 
L 1409 3309 
L 1409 2516 
L 750 2516 
L 750 3309 
z
" transform="scale(0.015625)"/>
      <path id="DejaVuSans-45" d="M 628 4666 
L 3578 4666 
L 3578 4134 
L 1259 4134 
L 1259 2753 
L 3481 2753 
L 3481 2222 
L 1259 2222 
L 1259 531 
L 3634 531 
L 3634 0 
L 628 0 
L 628 4666 
z
" transform="scale(0.015625)"/>
      <path id="DejaVuSans-4d" d="M 628 4666 
L 1569 4666 
L 2759 1491 
L 3956 4666 
L 4897 4666 
L 4897 0 
L 4281 0 
L 4281 4097 
L 3078 897 
L 2444 897 
L 1241 4097 
L 1241 0 
L 628 0 
L 628 4666 
z
" transform="scale(0.015625)"/>
      <path id="DejaVuSans-49" d="M 628 4666 
L 1259 4666 
L 1259 0 
L 628 0 
L 628 4666 
z
" transform="scale(0.015625)"/>
      <path id="DejaVuSans-2d" d="M 313 2009 
L 1997 2009 
L 1997 1497 
L 313 1497 
L 313 2009 
z
" transform="scale(0.015625)"/>
      <path id="DejaVuSans-64" d="M 2906 2969 
L 2906 4863 
L 3481 4863 
L 3481 0 
L 2906 0 
L 2906 525 
Q 2725 213 2448 61 
Q 2172 -91 1784 -91 
Q 1150 -91 751 415 
Q 353 922 353 1747 
Q 353 2572 751 3078 
Q 1150 3584 1784 3584 
Q 2172 3584 2448 3432 
Q 2725 3281 2906 2969 
z
M 947 1747 
Q 947 1113 1208 752 
Q 1469 391 1925 391 
Q 2381 391 2643 752 
Q 2906 1113 2906 1747 
Q 2906 2381 2643 2742 
Q 2381 3103 1925 3103 
Q 1469 3103 1208 2742 
Q 947 2381 947 1747 
z
" transform="scale(0.015625)"/>
      <path id="DejaVuSans-63" d="M 3122 3366 
L 3122 2828 
Q 2878 2963 2633 3030 
Q 2388 3097 2138 3097 
Q 1578 3097 1268 2742 
Q 959 2388 959 1747 
Q 959 1106 1268 751 
Q 1578 397 2138 397 
Q 2388 397 2633 464 
Q 2878 531 3122 666 
L 3122 134 
Q 2881 22 2623 -34 
Q 2366 -91 2075 -91 
Q 1284 -91 818 406 
Q 353 903 353 1747 
Q 353 2603 823 3093 
Q 1294 3584 2113 3584 
Q 2378 3584 2631 3529 
Q 2884 3475 3122 3366 
z
" transform="scale(0.015625)"/>
      <path id="DejaVuSans-6a" d="M 603 3500 
L 1178 3500 
L 1178 -63 
Q 1178 -731 923 -1031 
Q 669 -1331 103 -1331 
L -116 -1331 
L -116 -844 
L 38 -844 
Q 366 -844 484 -692 
Q 603 -541 603 -63 
L 603 3500 
z
M 603 4863 
L 1178 4863 
L 1178 4134 
L 603 4134 
L 603 4863 
z
" transform="scale(0.015625)"/>
      <path id="DejaVuSans-70" d="M 1159 525 
L 1159 -1331 
L 581 -1331 
L 581 3500 
L 1159 3500 
L 1159 2969 
Q 1341 3281 1617 3432 
Q 1894 3584 2278 3584 
Q 2916 3584 3314 3078 
Q 3713 2572 3713 1747 
Q 3713 922 3314 415 
Q 2916 -91 2278 -91 
Q 1894 -91 1617 61 
Q 1341 213 1159 525 
z
M 3116 1747 
Q 3116 2381 2855 2742 
Q 2594 3103 2138 3103 
Q 1681 3103 1420 2742 
Q 1159 2381 1159 1747 
Q 1159 1113 1420 752 
Q 1681 391 2138 391 
Q 2594 391 2855 752 
Q 3116 1113 3116 1747 
z
" transform="scale(0.015625)"/>
      <path id="DejaVuSans-6f" d="M 1959 3097 
Q 1497 3097 1228 2736 
Q 959 2375 959 1747 
Q 959 1119 1226 758 
Q 1494 397 1959 397 
Q 2419 397 2687 759 
Q 2956 1122 2956 1747 
Q 2956 2369 2687 2733 
Q 2419 3097 1959 3097 
z
M 1959 3584 
Q 2709 3584 3137 3096 
Q 3566 2609 3566 1747 
Q 3566 888 3137 398 
Q 2709 -91 1959 -91 
Q 1206 -91 779 398 
Q 353 888 353 1747 
Q 353 2609 779 3096 
Q 1206 3584 1959 3584 
z
" transform="scale(0.015625)"/>
     </defs>
     <use xlink:href="#DejaVuSans-46"/>
     <use xlink:href="#DejaVuSans-69" x="50.269531"/>
     <use xlink:href="#DejaVuSans-67" x="78.052734"/>
     <use xlink:href="#DejaVuSans-2e" x="141.529297"/>
     <use xlink:href="#DejaVuSans-34" x="173.316406"/>
     <use xlink:href="#DejaVuSans-3a" x="236.939453"/>
     <use xlink:href="#DejaVuSans-20" x="270.630859"/>
     <use xlink:href="#DejaVuSans-45" x="302.417969"/>
     <use xlink:href="#DejaVuSans-4d" x="365.601562"/>
     <use xlink:href="#DejaVuSans-49" x="451.880859"/>
     <use xlink:href="#DejaVuSans-2d" x="481.373047"/>
     <use xlink:href="#DejaVuSans-69" x="517.457031"/>
     <use xlink:href="#DejaVuSans-6e" x="545.240234"/>
     <use xlink:href="#DejaVuSans-64" x="608.619141"/>
     <use xlink:href="#DejaVuSans-75" x="672.095703"/>
     <use xlink:href="#DejaVuSans-63" x="735.474609"/>
     <use xlink:href="#DejaVuSans-65" x="790.455078"/>
     <use xlink:href="#DejaVuSans-64" x="851.978516"/>
     <use xlink:href="#DejaVuSans-20" x="915.455078"/>
     <use xlink:href="#DejaVuSans-6a" x="947.242188"/>
     <use xlink:href="#DejaVuSans-69" x="975.025391"/>
     <use xlink:href="#DejaVuSans-74" x="1002.808594"/>
     <use xlink:href="#DejaVuSans-74" x="1042.017578"/>
     <use xlink:href="#DejaVuSans-65" x="1081.226562"/>
     <use xlink:href="#DejaVuSans-72" x="1142.75"/>
     <use xlink:href="#DejaVuSans-20" x="1183.863281"/>
     <use xlink:href="#DejaVuSans-73" x="1215.650391"/>
     <use xlink:href="#DejaVuSans-75" x="1267.75"/>
     <use xlink:href="#DejaVuSans-70" x="1331.128906"/>
     <use xlink:href="#DejaVuSans-70" x="1394.605469"/>
     <use xlink:href="#DejaVuSans-72" x="1458.082031"/>
     <use xlink:href="#DejaVuSans-65" x="1496.945312"/>
     <use xlink:href="#DejaVuSans-73" x="1558.46875"/>
     <use xlink:href="#DejaVuSans-73" x="1610.568359"/>
     <use xlink:href="#DejaVuSans-69" x="1662.667969"/>
     <use xlink:href="#DejaVuSans-6f" x="1690.451172"/>
     <use xlink:href="#DejaVuSans-6e" x="1751.632812"/>
    </g>
   </g>
   <g id="legend_1">
    <g id="patch_5">
     <path d="M 51.004375 62.71375 
L 157.590313 62.71375 
Q 159.590313 62.71375 159.590313 60.71375 
L 159.590313 32.3575 
Q 159.590313 30.3575 157.590313 30.3575 
L 51.004375 30.3575 
Q 49.004375 30.3575 49.004375 32.3575 
L 49.004375 60.71375 
Q 49.004375 62.71375 51.004375 62.71375 
z
" style="fill: #ffffff; opacity: 0.8; stroke: #cccccc; stroke-linejoin: miter"/>
    </g>
    <g id="line2d_21">
     <path d="M 53.004375 38.455937 
L 63.004375 38.455937 
L 73.004375 38.455937 
" style="fill: none; stroke: #e69f00; stroke-width: 1.5; stroke-linecap: square"/>
    </g>
    <g id="text_13">
     <!-- Uncontrolled -->
     <g style="fill: #333333" transform="translate(81.004375 41.955937) scale(0.1 -0.1)">
      <defs>
       <path id="DejaVuSans-55" d="M 556 4666 
L 1191 4666 
L 1191 1831 
Q 1191 1081 1462 751 
Q 1734 422 2344 422 
Q 2950 422 3222 751 
Q 3494 1081 3494 1831 
L 3494 4666 
L 4128 4666 
L 4128 1753 
Q 4128 841 3676 375 
Q 3225 -91 2344 -91 
Q 1459 -91 1007 375 
Q 556 841 556 1753 
L 556 4666 
z
" transform="scale(0.015625)"/>
      </defs>
      <use xlink:href="#DejaVuSans-55"/>
      <use xlink:href="#DejaVuSans-6e" x="73.193359"/>
      <use xlink:href="#DejaVuSans-63" x="136.572266"/>
      <use xlink:href="#DejaVuSans-6f" x="191.552734"/>
      <use xlink:href="#DejaVuSans-6e" x="252.734375"/>
      <use xlink:href="#DejaVuSans-74" x="316.113281"/>
      <use xlink:href="#DejaVuSans-72" x="355.322266"/>
      <use xlink:href="#DejaVuSans-6f" x="394.185547"/>
      <use xlink:href="#DejaVuSans-6c" x="455.367188"/>
      <use xlink:href="#DejaVuSans-6c" x="483.150391"/>
      <use xlink:href="#DejaVuSans-65" x="510.933594"/>
      <use xlink:href="#DejaVuSans-64" x="572.457031"/>
     </g>
    </g>
    <g id="line2d_22">
     <path d="M 53.004375 53.134062 
L 63.004375 53.134062 
L 73.004375 53.134062 
" style="fill: none; stroke: #56b4e9; stroke-width: 1.5; stroke-linecap: square"/>
    </g>
    <g id="text_14">
     <!-- AITL controlled -->
     <g style="fill: #333333" transform="translate(81.004375 56.634062) scale(0.1 -0.1)">
      <defs>
       <path id="DejaVuSans-41" d="M 2188 4044 
L 1331 1722 
L 3047 1722 
L 2188 4044 
z
M 1831 4666 
L 2547 4666 
L 4325 0 
L 3669 0 
L 3244 1197 
L 1141 1197 
L 716 0 
L 50 0 
L 1831 4666 
z
" transform="scale(0.015625)"/>
       <path id="DejaVuSans-4c" d="M 628 4666 
L 1259 4666 
L 1259 531 
L 3531 531 
L 3531 0 
L 628 0 
L 628 4666 
z
" transform="scale(0.015625)"/>
      </defs>
      <use xlink:href="#DejaVuSans-41"/>
      <use xlink:href="#DejaVuSans-49" x="68.408203"/>
      <use xlink:href="#DejaVuSans-54" x="97.900391"/>
      <use xlink:href="#DejaVuSans-4c" x="158.984375"/>
      <use xlink:href="#DejaVuSans-20" x="214.697266"/>
      <use xlink:href="#DejaVuSans-63" x="246.484375"/>
      <use xlink:href="#DejaVuSans-6f" x="301.464844"/>
      <use xlink:href="#DejaVuSans-6e" x="362.646484"/>
      <use xlink:href="#DejaVuSans-74" x="426.025391"/>
      <use xlink:href="#DejaVuSans-72" x="465.234375"/>
      <use xlink:href="#DejaVuSans-6f" x="504.097656"/>
      <use xlink:href="#DejaVuSans-6c" x="565.279297"/>
      <use xlink:href="#DejaVuSans-6c" x="593.0625"/>
      <use xlink:href="#DejaVuSans-65" x="620.845703"/>
      <use xlink:href="#DejaVuSans-64" x="682.369141"/>
     </g>
    </g>
   </g>
  </g>
 </g>
 <defs>
  <clipPath id="p2f9807bcfa">
   <rect x="44.004375" y="25.3575" width="505.77" height="180.9"/>
  </clipPath>
 </defs>
</svg>
